<svg xmlns="http://www.w3.org/2000/svg" viewBox="0 0 880 240" width="880" height="240" role="img" aria-label="rdpserver — native RDP, Linux + BSD">
  <title>rdpserver</title>

  
  <rect width="880" height="240" rx="6" fill="#1a1d23"></rect>

  
  <g transform="translate(60 60)">
    
    
    <line x1="34" y1="60" x2="62" y2="60" stroke="#fbf8f3" stroke-width="2.5"></line>
    <line x1="92" y1="60" x2="120" y2="60" stroke="#fbf8f3" stroke-width="2.5"></line>
    <path d="M60 56 L66 60 L60 64 Z" fill="#fbf8f3"></path>
    <path d="M118 56 L124 60 L118 64 Z" fill="#fbf8f3"></path>

    
    <rect x="6" y="42" width="28" height="36" rx="2" fill="#fbf8f3"></rect>
    <rect x="10" y="46" width="20" height="3" fill="#3a8db0"></rect>
    <rect x="10" y="52" width="14" height="2" fill="#1a1d23"></rect>
    <rect x="10" y="57" width="18" height="2" fill="#1a1d23"></rect>
    <rect x="10" y="62" width="12" height="2" fill="#1a1d23"></rect>
    <rect x="10" y="67" width="16" height="2" fill="#1a1d23"></rect>

    
    <rect x="64" y="42" width="28" height="36" rx="2" stroke="#fbf8f3" stroke-width="2.5" fill="#1a1d23"></rect>
    <rect x="68" y="46" width="20" height="3" fill="#fbf8f3"></rect>
    <circle cx="78" cy="62" r="4" stroke="#fbf8f3" stroke-width="2" fill="none"></circle>
    <rect x="76" y="62" width="4" height="6" fill="#fbf8f3"></rect>

    
    <rect x="122" y="42" width="14" height="36" rx="2" fill="#bcc1c7"></rect>
    <rect x="125" y="46" width="8" height="2" fill="#3a8db0"></rect>
    <rect x="125" y="51" width="8" height="2" fill="#1a1d23"></rect>
    <rect x="125" y="56" width="6" height="2" fill="#1a1d23"></rect>
    <rect x="125" y="61" width="8" height="2" fill="#1a1d23"></rect>
  </g>

  
  <g font-family="&#39;JetBrains Mono&#39;, ui-monospace, SFMono-Regular, Menlo, Consolas, monospace">
    <text x="228" y="138" font-size="44" font-weight="600" letter-spacing="-0.44" fill="#fbf8f3">rdp<tspan fill="#3a8db0">server</tspan></text>
    <text x="228" y="170" font-size="13" letter-spacing="0.26" fill="#bcc1c7">native RDP  ·  Linux + BSD</text>
  </g>
</svg>